IKResults
version=1
nRows=17
nColumns=40
inDegrees=yes

Units are S.I. units (second, meters, Newtons, ...)
Angles are in degrees.

endheader
time	pelvis_tilt	pelvis_list	pelvis_rotation	pelvis_tx	pelvis_ty	pelvis_tz	hip_flexion_r	hip_adduction_r	hip_rotation_r	knee_angle_r	knee_angle_r_beta	ankle_angle_r	subtalar_angle_r	mtp_angle_r	hip_flexion_l	hip_adduction_l	hip_rotation_l	knee_angle_l	knee_angle_l_beta	ankle_angle_l	subtalar_angle_l	mtp_angle_l	lumbar_extension	lumbar_bending	lumbar_rotation	arm_flex_r	arm_add_r	arm_rot_r	elbow_flex_r	pro_sup_r	wrist_flex_r	wrist_dev_r	arm_flex_l	arm_add_l	arm_rot_l	elbow_flex_l	pro_sup_l	wrist_flex_l	wrist_dev_l
      0.38000000	     16.49560970	     -2.09381800	     -1.86478079	     -0.01463666	      0.95358860	      1.44054656	      0.41102867	     -1.28615516	     -6.08148671	    -50.57726999	     -0.88273989	      6.64340280	    -16.62876336	     13.31478789	    -16.58638874	     -0.48582494	     10.66489684	    -16.72923792	     -0.29198028	     13.55396139	      6.41584110	     -5.52923562	    -24.46056775	      0.32344744	     -1.04079142	    -11.28143000	    -13.45241516	     -0.33132256	     25.97323030	     89.95437384	      0.00000000	      0.00000000	      1.03510007	     10.86950578	      5.13798078	     24.18731354	     89.95437384	      0.00000000	      0.00000000
      0.39000000	     16.09477513	     -2.13976632	     -1.50802711	     -0.00015517	      0.95200113	      1.43939894	      2.26433048	     -1.33066605	     -7.16427606	    -48.99757809	     -0.85516906	      7.29401697	    -16.45269370	     13.11058883	    -17.28832314	     -0.40442381	     10.84517388	    -16.37016897	     -0.28571335	     14.12101924	      6.15152540	     -5.51726633	    -24.05730959	      0.61943585	     -1.62878652	    -12.08423815	    -13.42171471	     -0.19797036	     25.03540352	     89.95437384	      0.00000000	      0.00000000	      1.84142433	     10.99422376	      5.21231714	     25.79987092	     89.95437384	      0.00000000	      0.00000000
      0.40000000	     16.29495897	     -2.47633605	     -0.58764357	      0.01465443	      0.95120468	      1.43812044	      2.96435925	     -1.01851170	     -8.77462847	    -46.62558356	     -0.81376995	      7.77085016	    -16.00607866	     13.03913113	    -18.69333446	      0.10647675	      9.95865231	    -15.94712813	     -0.27832989	     14.68462022	      5.81695517	     -5.66504504	    -24.31434876	      1.31904058	     -2.72334592	    -12.59327431	    -13.26687599	     -0.74837473	     23.97398607	     89.95437384	      0.00000000	      0.00000000	      2.24690802	     11.27364168	      5.39512031	     28.24884767	     89.95437384	      0.00000000	      0.00000000
      0.41000000	     16.24775602	     -2.61155850	     -0.01304625	      0.02936255	      0.94953695	      1.43712917	      4.12555736	     -0.97983616	    -10.10997927	    -44.52979234	     -0.77719149	      8.11296926	    -15.61195048	     12.89349490	    -19.80257570	      0.36405664	      9.60809882	    -15.57803116	     -0.27188793	     15.29986663	      5.58915396	     -5.76613591	    -24.29179970	      1.71828670	     -3.43859517	    -13.32308990	    -13.17140914	     -1.14535349	     23.06878211	     89.95437384	      0.00000000	      0.00000000	      2.86005149	     11.53798443	      5.36386484	     30.39306746	     89.95437384	      0.00000000	      0.00000000
      0.42000000	     16.16686430	     -2.74378632	      0.58230517	      0.04394210	      0.94747584	      1.43627732	      5.26388484	     -0.98670105	    -11.54959569	    -42.31906254	     -0.73860698	      8.21072672	    -14.96904039	     12.68779168	    -20.76588523	      0.65360220	      9.17786832	    -15.38582815	     -0.26853336	     15.97966575	      5.52516778	     -5.84032740	    -24.24950959	      2.11420635	     -4.17622359	    -14.04151558	    -13.06953538	     -1.59273883	     22.24159828	     89.95437384	      0.00000000	      0.00000000	      3.44602969	     11.84781714	      5.29428775	     32.62723126	     89.95437384	      0.00000000	      0.00000000
      0.43000000	     15.63245607	     -2.54818877	      0.60401104	      0.05821660	      0.94434532	      1.43578613	      7.13205162	     -1.42809976	    -12.50346185	    -40.45738923	     -0.70611465	      8.12250378	    -14.39927321	     12.44080713	    -21.07836832	      0.42974824	      9.35896784	    -15.52177757	     -0.27090612	     16.20228382	      5.41787252	     -5.76763118	    -23.73668502	      2.01073846	     -4.35216075	    -15.07130083	    -13.11214412	     -1.61567892	     21.77035560	     89.95437384	      0.00000000	      0.00000000	      4.39302349	     11.98495610	      5.29078485	     34.28270525	     89.95437384	      0.00000000	      0.00000000
      0.44000000	     16.06172196	     -2.95071025	      1.65922588	      0.07326313	      0.94261889	      1.43485058	      7.22248404	     -1.14675655	    -14.53733797	    -37.51203950	     -0.65470860	      7.68554124	    -13.28397473	     12.07774022	    -22.72773455	      1.14489444	      8.18135901	    -15.09610698	     -0.26347677	     16.96087124	      5.66645907	     -5.99733810	    -24.21589881	      2.80105628	     -5.39899583	    -15.58700279	    -12.85559328	     -2.90076688	     20.75542495	     89.95437384	      0.00000000	      0.00000000	      4.78528682	     12.49939444	      4.97147914	     36.95086287	     89.95437384	      0.00000000	      0.00000000
      0.45000000	     15.90504323	     -2.94852962	      1.96932450	      0.08806580	      0.93960698	      1.43435476	      8.29443771	     -1.39528212	    -15.96368384	    -35.15080494	     -0.61349728	      7.05598051	    -12.18528823	     11.45354866	    -23.66383231	      1.17837252	      7.62899805	    -14.88934759	     -0.25986814	     17.61733425	      6.04108805	     -6.20132777	    -24.07855368	      2.96930556	     -5.83166540	    -16.37466689	    -12.77914271	     -3.61702620	     20.04015505	     89.95437384	      0.00000000	      0.00000000	      5.44272739	     12.81026106	      4.80871694	     39.06513209	     89.95437384	      0.00000000	      0.00000000
      0.46000000	     15.20062230	     -2.63040141	      1.81424900	      0.10270167	      0.93548913	      1.43433870	     10.21275025	     -1.98711815	    -16.96503768	    -33.24789921	     -0.58028531	      6.33467393	    -11.37349196	     11.18243075	    -23.82073542	      0.80092612	      7.99636128	    -15.11310839	     -0.26377350	     18.19378457	      5.84182950	     -6.10109578	    -23.35776041	      2.64312198	     -5.98240879	    -17.27881117	    -12.81910351	     -3.77420975	     19.56293786	     89.95437384	      0.00000000	      0.00000000	      6.17116230	     13.05011144	      4.77383785	     40.89137500	     89.95437384	      0.00000000	      0.00000000
      0.47000000	     15.52436235	     -2.93855144	      2.53200452	      0.11773199	      0.93290798	      1.43362045	     10.33008706	     -1.92756818	    -19.23435896	    -30.31999907	     -0.52918381	      4.63908769	     -9.78516266	     10.33322011	    -25.32202164	      1.32938585	      6.97259833	    -14.85070163	     -0.25919364	     18.88304940	      6.42533699	     -6.47760254	    -23.74723147	      3.26908957	     -6.64878127	    -17.88424393	    -12.73626962	     -4.35446539	     18.63000095	     89.95437384	      0.00000000	      0.00000000	      6.67734921	     13.42469408	      4.59297422	     43.33519632	     89.95437384	      0.00000000	      0.00000000
      0.48000000	     14.89649976	     -2.72284634	      2.50966510	      0.13234653	      0.92872385	      1.43357205	     11.90328967	     -2.34392621	    -20.40898282	    -28.15351047	     -0.49137145	      3.49744406	     -8.72373970	     10.10915493	    -25.61052237	      1.10151803	      7.05182183	    -14.99154226	     -0.26165177	     19.52751547	      6.32816928	     -6.49457247	    -23.15626859	      3.08081816	     -6.92832661	    -18.55998772	    -12.76586953	     -4.81689641	     18.03072859	     89.95437384	      0.00000000	      0.00000000	      7.26978157	     13.73095660	      4.54229476	     45.34542504	     89.95437384	      0.00000000	      0.00000000
      0.49000000	     15.01269856	     -2.94773489	      3.20274278	      0.14769727	      0.92565047	      1.43304666	     12.14693215	     -2.49645104	    -23.39827628	    -25.54421182	     -0.44583060	      3.45735657	     -5.94301361	      8.17841687	    -26.69471805	      1.65601598	      6.59036314	    -15.13875655	     -0.26422115	     19.91235254	      6.42059900	     -6.97173351	    -23.27726306	      3.60553148	     -7.50437666	    -19.18491398	    -12.57548305	     -6.41446369	     17.27599503	     89.95437384	      0.00000000	      0.00000000	      7.93588310	     13.97150608	      4.50893686	     47.22477884	     89.95437384	      0.00000000	      0.00000000
      0.50000000	     14.67220863	     -2.80877013	      3.60915893	      0.16285106	      0.92179619	      1.43255870	     13.07348230	     -3.07772444	    -26.11498492	    -23.33968785	     -0.40735440	      3.02452446	     -3.73403111	     -4.23227953	    -27.20586058	      1.71408337	      6.21105164	    -15.45390648	     -0.26972155	     20.27220829	      6.83861176	     -9.41296662	    -22.94616214	      3.66050131	     -8.07451339	    -19.74250477	    -12.52319779	     -7.54343514	     16.61188480	     89.95437384	      0.00000000	      0.00000000	      8.48684621	     14.20093019	      4.62602654	     49.10035473	     89.95437384	      0.00000000	      0.00000000
      0.51000000	     14.38470762	     -2.91323130	      3.99541725	      0.17823091	      0.91800755	      1.43245198	     13.93772002	     -3.29674892	    -28.79742771	    -21.49387176	     -0.37513883	      4.36222923	     -0.39778997	     -5.38845499	    -27.66490959	      2.13680290	      6.53018954	    -16.01429465	     -0.27950217	     20.51457305	      6.07996790	     -9.54252740	    -22.65553059	      3.94585259	     -8.54630135	    -20.34792068	    -12.56484100	     -7.82115298	     16.02817916	     89.95437384	      0.00000000	      0.00000000	      8.98157411	     14.39885522	      4.81519786	     50.93471897	     89.95437384	      0.00000000	      0.00000000
      0.52000000	     13.97909100	     -3.04600388	      4.31977019	      0.19353348	      0.91430121	      1.43260245	     14.89930951	     -3.21114188	    -30.53889219	    -19.68425281	     -0.34355502	      5.14461502	      1.32165986	     -5.94171247	    -27.97320022	      2.51486801	      6.47920373	    -16.64130533	     -0.29044557	     20.88534105	      6.09276107	     -9.60927422	    -22.25376958	      4.21728110	     -8.97807663	    -20.76068472	    -12.59207770	     -8.33892245	     15.32842899	     89.95437384	      0.00000000	      0.00000000	      9.43747252	     14.53123434	      5.16136695	     52.60312057	     89.95437384	      0.00000000	      0.00000000
      0.53000000	     13.50077739	     -2.86869723	      4.15491631	      0.20864903	      0.91061837	      1.43294866	     16.29165312	     -3.43589298	    -31.26109462	    -18.76537348	     -0.32751755	      5.53097715	      1.48743776	     -5.96978057	    -28.36793919	      2.32420963	      6.55060762	    -17.01249170	     -0.29692399	     20.74344603	      6.00414514	     -9.55251902	    -21.86695181	      4.05433199	     -8.86499060	    -21.37700807	    -12.70526716	     -8.40229321	     15.02380340	     89.95437384	      0.00000000	      0.00000000	     10.21645944	     14.51982532	      5.25906330	     53.77441895	     89.95437384	      0.00000000	      0.00000000
      0.54000000	     13.22650188	     -3.12659145	      4.96159281	      0.22496576	      0.90744410	      1.43256682	     16.97423511	     -3.87466440	    -34.76421358	    -18.09232409	     -0.31577062	      6.16640289	      7.66544629	    -12.74713527	    -28.54095684	      3.23451292	      6.79260386	    -18.17044298	     -0.31713406	     20.42298011	      4.99860900	    -11.00596615	    -21.48546517	      4.62440138	     -9.86251189	    -21.51914668	    -12.71300867	     -9.64859275	     14.20013517	     89.95437384	      0.00000000	      0.00000000	     10.31188155	     14.70119651	      5.72874240	     55.39736622	     89.95437384	      0.00000000	      0.00000000
